<mxfile host="app.diagrams.net" agent="Mozilla/5.0 (Macintosh; Intel Mac OS X 10.15; rv:128.0) Gecko/20100101 Firefox/128.0" version="24.7.6">
  <diagram name="Page-1" id="WGixMAlqZ0XPN3H3SW60">
    <mxGraphModel dx="1913" dy="1323" grid="0" gridSize="10" guides="1" tooltips="1" connect="1" arrows="1" fold="1" page="0" pageScale="1" pageWidth="850" pageHeight="1100" math="0" shadow="0">
      <root>
        <mxCell id="0" />
        <mxCell id="1" parent="0" />
        <mxCell id="DCEyCE0tk0ZEMpWGHrVt-1" value="USGS water services API documentation website" style="ellipse;whiteSpace=wrap;html=1;fontFamily=Architects Daughter;fontSource=https%3A%2F%2Ffonts.googleapis.com%2Fcss%3Ffamily%3DArchitects%2BDaughter;" vertex="1" parent="1">
          <mxGeometry x="-160" y="-175" width="160" height="100" as="geometry" />
        </mxCell>
        <mxCell id="DCEyCE0tk0ZEMpWGHrVt-2" value="" style="image;aspect=fixed;html=1;points=[];align=center;fontSize=12;image=img/lib/azure2/compute/Function_Apps.svg;fontFamily=Architects Daughter;fontSource=https%3A%2F%2Ffonts.googleapis.com%2Fcss%3Ffamily%3DArchitects%2BDaughter;" vertex="1" parent="1">
          <mxGeometry x="209.42000000000002" y="-246" width="68" height="60" as="geometry" />
        </mxCell>
        <mxCell id="DCEyCE0tk0ZEMpWGHrVt-3" value="" style="shape=image;verticalLabelPosition=bottom;labelBackgroundColor=default;verticalAlign=top;aspect=fixed;imageAspect=0;image=https://seeklogo.com/images/P/pinecone-icon-logo-AF8B5B7F96-seeklogo.com.png;" vertex="1" parent="1">
          <mxGeometry x="209.64" y="222.35" width="70.31" height="79" as="geometry" />
        </mxCell>
        <mxCell id="DCEyCE0tk0ZEMpWGHrVt-6" value="&lt;div&gt;&lt;b&gt;Unstructured Open Source Library&lt;/b&gt;&lt;br&gt;&lt;/div&gt;&lt;div&gt;&lt;br&gt;&lt;/div&gt;&lt;div&gt;- web page scraping&lt;br&gt;&lt;/div&gt;&lt;div&gt;&lt;br&gt;&lt;/div&gt;&lt;div&gt;- Partitioning&lt;/div&gt;&lt;div&gt;- Chunking&lt;/div&gt;&lt;div&gt;&lt;br&gt;&lt;/div&gt;&lt;div&gt;- Embedding&lt;/div&gt;&lt;div&gt;&lt;br&gt;&lt;/div&gt;&lt;div&gt;- Upsert&lt;br&gt;&lt;/div&gt;" style="shape=process;whiteSpace=wrap;html=1;backgroundOutline=1;fontFamily=Architects Daughter;fontSource=https%3A%2F%2Ffonts.googleapis.com%2Fcss%3Ffamily%3DArchitects%2BDaughter;" vertex="1" parent="1">
          <mxGeometry x="122" y="-96" width="251" height="213.5" as="geometry" />
        </mxCell>
        <mxCell id="DCEyCE0tk0ZEMpWGHrVt-8" value="" style="shape=image;verticalLabelPosition=bottom;labelBackgroundColor=default;verticalAlign=top;aspect=fixed;imageAspect=0;image=https://static-00.iconduck.com/assets.00/openai-icon-2021x2048-4rpe5x7n.png;" vertex="1" parent="1">
          <mxGeometry x="-112.24" y="157" width="64.48" height="65.35" as="geometry" />
        </mxCell>
        <mxCell id="DCEyCE0tk0ZEMpWGHrVt-13" value="" style="shape=stencil(rVrbbhw3DP2afSUkUTc+p+l/BIhTG3XjwHFvf1+qhiYjUnt2C/TNntUZibfDi+bCH74/fvr2cEnh+9vry68Pfz59fnu88E+XlJ6+Pj68Pr3pXxf+eOEPX15eH355ffn96+f3/799GivHX7+9/DHe8Nc7LlBpA5TC3/NB4n8f/Py+/Pnp62l5pBKW5Wk+2C5PdnmhmK4vZyppWd4pgrdnqrwsj5Fiv76+UpJ1faHWrq/vVPsqbKQG3q/bl7oCVAABgEx9lYALJaCg2CwgRwoZGEDNuVogqwkQIM2fD0AnjgDAlFctlTCf7AHObCXNQ+4BhXpcAUxSAaBRLCugkACvHpZeDVcaCTAcH1EyATVQQIBIdY2zmigAoTlRNwCeetsDshW6FuICAPrzariqegOW5mq5oqre0A6N2qrWFigiGVzEtYiPJJSzBQiijDDfdwASVbCDAurKSY2hWjUgDcu0PPV2DSBGhoJpL03vPwEqcL6snrOSQFMqBCGas+Xt1iggGQplo9ZOAVg61+kIJ0AFMZ3bzBwHQKgCIstH7jiSSYC5KssU8QDEmY+2AOW5sMrQEzGQQQHGcJ1hPJRoSUABHe2grLH6Us/T9ntApmBSbqECfEmZNBkZKmUkQ7V03xuk+0G91QIasHQR60sdp13lao4WgISu6ggGILjScOwt6iyANWq2rKGADpxPyb2tlpaj+tgDmtshzSd7QHcyJGoAoORusqhobQBkUOo19Z5kyHzKpIZmFFCAHZTnDJFJgc6nLGSqGQVUVCOGmT4OAOZW5YiSLUCAa2gEG5qRBiNOIzh2C+gggBQg0QIEGE5DviUHQEdq00xnAEi7IyCd0BAgNk8PAFCrxlf1RwIBpPHVvZZAPGi4iAmgPtl2D1BLVwcAalXftK7RYVWpABvTbVYfe0B18dDmK/YA9U23Q0N2EEcCCgCWVoA3HGrjFLAxHBJapvef1JrwkaRbQAFCxxCmnU4IFHJjC6NXgTwzpBYLQKWA/tzcDog2xvvYAgQbwvqG4AgS4uSOhAHRC30DECyAMSAUC0Ad+AbQYUbZHKlPNdwr9A2e8WptM0TuNdztGHX03RCTeee7wTPevTtsFTcB1GEa3ccoKoA2NKCmQSnFE43AHmVDZXKL+yxZyi3uM3R80sP/hfA5QnCu9llI5iDs3jwncxZxbyYV7OE+Vx+qvrcauAHw9caNI/mKRmDjtKmZBObqTVWG3W/UfU5LcIc66fqsJbSDWtrxcblRHTvGT8A1tOUWR+CwnE6UHQCNjMZgwrQEDWat0aU4Ag+4D7KAOm1/rdNi16WgmNZeLhvXKLNpvtYtmmmiZBjT9SDfEwBVZWOcaeKBqQEZtKe28ZBgQaNde6wWkIBr1OQapzi58NrkwQxpR5QjLYV5gXCePIAdylG+nGYbSEulzRHUCcAI4Ni74zxaynTmEwDKwPNe5jQyQpcWJdmJ6JhioR2iA+C7oxIskSkATYCy2GG5Nv5IhtxnRXUaDiLmy80mFGUqxK25uiNF2CLnYqs4BSRAMwqw48eAp7ou7TaBY6/M9gJsDJrRsNxdgDXVG5obx9mHnQCoEs3Blj8Nz5hYrHsrPaNbWgVYGZgyum1yCWXwOUgo3GxMtwj7JnaXr1XgTQ07EtAEwEhotrxUK5zqcrJDKeVz1HOwI+PKkO6T2Kudwef4IpLNRaTAAErVlj/luPzcAwrl1Q7KthEInbJtFpVtM74QNs43yBNd18YZXxOgXJjRtblYoZWpUAaKzVZkI8rRfCbbauaH/+4B0VYCavuEar7567E+wW8Lir34jxU21K4yiVhitlWAwGyVbLtUsT7t2xmOooIt0TVqgIsGO2HBSUeXR7McDXDcFCBM77t3OXJ+d4cYYB0S7B1lgDVCsDdjAca6+1gEl4663B4mwMNwscuhE2R7djQLD/aKLsAk/B+/e7q5XP/48YnVl6fn5/cvtM6/20+y9NH751z88R8=);lineShape=1;strokeColor=default;fontFamily=Architects Daughter;fontSource=https%3A%2F%2Ffonts.googleapis.com%2Fcss%3Ffamily%3DArchitects%2BDaughter;" vertex="1" parent="1">
          <mxGeometry x="-6.565002748427105" y="-87.56499932927363" width="168.99664019360944" height="70.372153528436" as="geometry" />
        </mxCell>
        <mxCell id="DCEyCE0tk0ZEMpWGHrVt-14" value="" style="shape=stencil(lVhbctswDDyNfzEgQYLid5reIzNxGk/TOOMkfdy+UD2UTVDaNH+yvCBei4e4k5vXx7uX/S7y69vp+H3/63D/9riTL7sYD8+P+9PhzZ52cruTm4fjaf/tdHx/vj//frmbkfPTj+PP+YTfZ7mQiPMsFfnP+Q0T878XX8/4p8PzNb5SjQ6fdBsflRJ3+Egat/EilEuHVyppG58icerwIVKQbYEcKPYOhEKStwWUKYTeg0AVmKSFkvQCiaa6LVDM59oLFIrAhzK1GC4ClaRsC0yJSp9lMR+ASdWiNAhMQEPghTeLRCYBTlRtfzeBOZdIgEn6RCSlCXBp4saEJpCFKtCgkyerBsoTIFPxibAjpgDoWoj7VJdMCQiInTd1AuYVowKyxPaZs+QL0BAzRadhIgYlHcykvuSMLQlwI7cKXvDGVqBgIKvhUZ6F1LUAxk0sUg6DApBmc696fAJ4Ju0jWi1kgHfGU/V4BikbSq0WCsBfpuj8VQqg+pmKs8dKGcZHnT2pnbARf5cwwwuwR6iUAY+qzNeM4TOaCQOhM6wxpTzEp6C+QlV9/DMaCCv5zdCekW8J8EGbd1d8DmAE5sauK3wB56eV8ytoEHHIV21NbINv01C/CiYy+53F8AzssUHDPp4C64udPQU2dR7iqa3DbODzwE/krw1v16/SB/H8JD63/r2MjIIbbqDiZoy0mlsXsID3KbOxB+ekjdE+RkVhT0xC0QmENhbWi0D8+qG4y6n4OWbrAiqzkkj7Ppdq69zrC45p6KOUAmxENqi51yC1bbfrGrIvNVtIkAZLk0uclLZwrzs9NBdJjY7rAux3rnnlAdVsaVK3j9v+AciXtZ23CGhb27a2OteA55EINFhM3EQICj+LzOLYRymExq7NJa2vaW1fJet4odD7nBu31vGxhfCCz8ieZZG+4BEtArdvrIXasNjC8hl6waMVJww7l7Qmu4XnHm9DC/k7nB/bi037+/jjbjTHpz+f4UdpGHY0hivsnF9/PrRfWrj/8x7hs/cOH+Lt4XLJ8XB4ejrfkVz/7y9F7NX5QkVu/wI=);lineShape=1;strokeColor=default;fontFamily=Architects Daughter;fontSource=https%3A%2F%2Ffonts.googleapis.com%2Fcss%3Ffamily%3DArchitects%2BDaughter;" vertex="1" parent="1">
          <mxGeometry x="152.29944081706026" y="-30.700282848567895" width="19.844371926733402" height="24.49162497288785" as="geometry" />
        </mxCell>
        <mxCell id="DCEyCE0tk0ZEMpWGHrVt-17" value="" style="shape=image;verticalLabelPosition=bottom;labelBackgroundColor=default;verticalAlign=top;aspect=fixed;imageAspect=0;image=https://upload.wikimedia.org/wikipedia/commons/thumb/1/1c/USGS_logo_green.svg/1280px-USGS_logo_green.svg.png;" vertex="1" parent="1">
          <mxGeometry x="-147" y="-63" width="125" height="50" as="geometry" />
        </mxCell>
        <mxCell id="DCEyCE0tk0ZEMpWGHrVt-18" value="text-embedding-3-small" style="ellipse;whiteSpace=wrap;html=1;fontFamily=Architects Daughter;fontSource=https%3A%2F%2Ffonts.googleapis.com%2Fcss%3Ffamily%3DArchitects%2BDaughter;" vertex="1" parent="1">
          <mxGeometry x="-160" y="47" width="160" height="100" as="geometry" />
        </mxCell>
        <mxCell id="DCEyCE0tk0ZEMpWGHrVt-20" value="" style="shape=stencil(lVnbclMxDPyavHps+f7M5T86Q6EZSsuUcvt7ZDI+jVfpnuathJWPba2klXyI737c3Xy/PYj/8fz0+PX29/HT890hvj+IHB/ubp+Oz/rXIX44xHefH59uvzw9/nz4dPr395uBHH99e/w1VvhzsuvdVRlW4v+efikuhf8/fDzh748PK953wOdM8M1JRXwh+OpCBLz3BJ9dCQs+O+kEH10rCz65LAQvTvyCj64mgvcuR8BHsp+m91kAL2T9Vl1CfCD32fI83hk+Enx0xaxP+NCCKw3xxF/NT3e+4D25n9pcxfuk+OpKQnwjeKV7vQafXcjX4KNL5rwMH67bT+nI/x18dfWa/RQNv2vOW5LlJ4uvosut/EwuEP6X4GoDfCP5p3jMPxoQhD+5ubiuX1wk+8nZ9fX+q8sML3j/3cX6Oj71mT4mPoT5xcsG6rA1YEKiGSuJa+uOgnKEfUFDeA0x8bOIXDSIFXPESIokCcU8fboZZFeJl6OyDrZUZx67bKC0W92mfqiE1zG4CHEgk7kXDXQ9DIREK5OYyqf3lsihlfllpbZ6htVWkZnKNwMtfiRZh+4Egk1/IV8IZbppizbNf+TQys2yHjrXmQAvG0Q8g0Z4Io4LMqm2GQj1g8ZXgwygNZF4Wg0wZaRJ+MsGRiNoVo7EoLsGGk3JykSFiyu+6oZYkpwSbuK1Sgvhha625qRWZkq4TDwM5x5oEvaT9xu+0xTmXSyI74SmfpL4HE/3EyriG2GER42seEZqjylbVXMnfDAaSvGJ+MviK+WPSfCKF1IR7HkLLQh6nw3xjP+mhite6PrR4ikfIFUrnmUtE7+Kbxzf8D4T3X8x/mW1xs9oOsMXUl89xrvyM9D7Tw3xLCN61Cwjvih/IigQ72nX57EpGx+g+CDmAJzQ9oIogUBNDAdcGZA8AYFIVjzrKhVvAqDRBARNzQgASojr8IJNSmsUr3JuDbCmJYQQuqBO0bausa4V/aVtl2dTDAyAkul9BkNQ1RDCJUGFMYmWSHICFR0g/kanw1SKYBHLnRZ5NehgUKm8DJuY3AwS7YVULZaV1nnLrK/pUeCddjuRnEHCDKvNINAvjGkQjDP4oVW1Q+0evQhT7R2Lk7YWjBrjv6EZ6rQaaGPSVz9ofDRyS7rjCN1T4t1TRpmvEU77s4oVauR8Qu+o+Xz9wl5TKjgnClyEp4z01pCiX+jYSDSaA7TTL+sRypTlr00SGrRzVISMSQVOZlhfM/IDeJmGwpi0rPhAWaRtVW+AZ5O6Ynr2TYa9cRLlaRjYSddWpd84SeN4O6nbwZtJ4A7eTBp38GaSuYM3k9IdvJnEcryd9HJNZyfJO3gzqd7Bm0n4Dt5M2nfO21F0ea4pjAr3VGOOlwgTL2z9OHuSl3gMDJ8xXwXaJI6XmvW8Qod69iVI6FDCvjTJlDyv4eElS6gG7NsM5QzP7r/jFCPS/PPS85zlZ75+x/XZkGTg8eWlU01qAjLRJuKiAVPhdkd5Spc3njjTttXeaKZjHuuxQhWvZUSZg6U3Mm737XQHr3+8PNR+Pt7fn955z/8fH3b1p9OjcPzwDw==);lineShape=1;strokeColor=default;fontFamily=Architects Daughter;fontSource=https%3A%2F%2Ffonts.googleapis.com%2Fcss%3Ffamily%3DArchitects%2BDaughter;" vertex="1" parent="1">
          <mxGeometry x="-24.832798529411093" y="14.494823375061287" width="206.4160157328754" height="32.65910221106583" as="geometry" />
        </mxCell>
        <mxCell id="DCEyCE0tk0ZEMpWGHrVt-21" value="" style="shape=stencil(lVfLbttADPwaXYnd5T7PafofAeLUQl07cJy2+ftQEFYRKXuM3GSJ4yWHw8cO/PC2f3rdDcG9Xc6n37t/4/NlP/CPIYTxuN+dx4s8Dfw48MPL6bz7dT69H5/n369Pk+X09Of0d/qH/zPOOwp5QgX3Mb+JVOYXP2f7w3hc2zOloOx9JR8AIBF7BQgCKACQ++cO4ELFQUBtCpA8OeRSoRAVIDviBAHJaUClhlxqFLVLVXj2twEhUUka4CmCGISTqGktFZ4QcydxAUQYdCrkWAe9RHUVIJwUnbgcKfBtQONO4pK4QA2IryWKyQJKBIBMrWoAUwC0tkqs5Z2EJRRD2wASNSBvAVi1FmogDwJohlZHDuRBAMnIO5BHLFXKmtbMUN5NxGfqIZGvMHHNW0BFQQvrcQNAeQhU88YlFLSnHGzQ8ARnS1RodUitbhODJA7R6ihqgEijIi15W6IivoqkIR6bApISRSewzbQUEMx0pGZculuiplVOTQDFUDZdg3HQ7QpLjEu0ZJsHxJJ3S2IXRLt7hNGG9HvEa+2krOTKSH2lF9iqG1cwIKZEmIJIcO5+G1CkDWmXisx6NFFE37ptVNEGEFOSGtWprq0L+PpUdJR0c5VWFQCAPRUdtGSmgLYhk521NFZqubXPlGqPSEjglPUJ0hcKyHTuI3DFKtJe6ovFkjaGK59MabM4ROhPomzKLcMBJz1O+x/v2ZsMSBJRD4v935aNNfSMXLWX1U7bN1gGm15RoRxc32UXNvvGfsPcDJ3YFX7DvOmSZHKgwHxvIYuY+1C8Lv4+vrq5g0QK8dWYo/aQ+v76ZY6IzHbgO7idFhuqg7O42nYrVKF+Trka3lHb+fY17a69PHzdCV/Gw2G+Uq6/2zukvJrvn/z4CQ==);lineShape=1;strokeColor=default;fontFamily=Architects Daughter;fontSource=https%3A%2F%2Ffonts.googleapis.com%2Fcss%3Ffamily%3DArchitects%2BDaughter;" vertex="1" parent="1">
          <mxGeometry x="-29.859689182274906" y="43.13543854713089" width="16.29607117541741" height="11.958987557501814" as="geometry" />
        </mxCell>
        <mxCell id="DCEyCE0tk0ZEMpWGHrVt-24" value="" style="shape=stencil(lVnLctw4DPyauaL4JnFOsv+RqjjrqTh2yvG+/n7BnaUiNqWe5OZMAEoggEajdYnvvj9+/PZwCe772+vLl4e/rp/eHi/x/SWE6/Pjw+v1zf66xA+X+O7zy+vD768vfzx/uv3728du2f/6+vJnP+Hvm5+TWLtTcP/cfmhNfPzvl99u9k/X5529l6izvVL7ILVN9uokE/skBeyDxHRuX6TN769JXDu3Vwllts9SlcTrJcMLVXGOOERpDh1qJg5ZdL5SbeIqcWgjwp1D8CQHTnxaHMgTLMvq0CGSoEOUsjqwV8qSFgcWdKgS83KtrPBUkqIDq6ToF4cilQQdo4TFwZPai2mU2r74yC3FIv3/ZgfHYmiLg7VDIO3mx3n7fiMxJHuBiA0dSB6yEweIUaWQoHOWML9SS9KIQ1nKuwXxhTgkSXMDVR3VdexQpc2oUYsoyUN1CGM10UzXIG1OnP2SSQx23v/9tTk4UZLpmiXPTyhKQcBCTDO09mtgQVd8pVLGRR872KiZS6Nkmjhz0PlaSxyZOXZQqXPiCr/W5hDIiqfzpHkEgbwBz7GD1eZ8S9n6gTSQOeicB+uQxBziSNPmEMWR8rb+0hlbk46xeuxQxgjcHMq4t2OHKh4c4sCRY4eGtRR14Mixgw6s3hwSnQ/qxc/XahNDyRMMGPOMfDbEKqMaceDc5hDoUDSshloKjgZtDhC0cYPMHDKCsa8SSOLMIc+1ZHSlEJjRpTSMEDGCZQ4ZXslTvtT5F0wgUdLSujCHNoDtzL7N5xuKsfPbmH9bbQ+kPbZXBABHZ0m3V7C/c37E82mKDa8y2LPWNHuASLNnVW2dmcDes/wqDlsnid+P4vuzMeWdW0qUt6UiQfeUj3T7OeBAB20POIN9YQVnFxrAXnnCYIUx7OXnp4j2vOAQtkYHnRZ0A/vMCxQaJtBVwexhP9p2uNPzsR4o6uogKT8KrvCCDhXsAz8/LQ3G481LA/P7rMv5/H0AEJ1Enl9Fe7ZHHfUXA4jDBi53EGJOWKCaxS/bNxQ5+HZg9gknEgWgigh3h6lUbPiuYrAMLPTMhjZbiPrQXmgBrYkyIGRPPJjDSjzagL0zBw9PuHNLaaDslmVPBQLjc0DEDRiZlmWMsQHQVY6kHilm9FTZsd3bzZUR81iRznh1mWNIjtaeMXfYAlOi08x2gzhfa6p8mchDWtrWFU8Ji60rQIhyogzBFiJgRLmMzJytXNCgttTRV/JjhdutjQwybM8E3dIW08puyWEDlUQlOVt9gZaWraXOluu0rO+NPaFiixau4dWCqkhRKjbVjEynOkot6qrsBEqW67Jc2xGexeBQ3rWo7mhHMEwq39EsrxkkeU/neXEo+nUFgEly1nHgUOhKlB3uyrZuB64SAmUzaGsk6LS1y1645EonoIYNgEKe0LXUVd5l4mtCGaVvkuwJcYyPnQNTpwzc86LLRyaCK2p4nesyEbzi551OLkk/dF1+eUIlMazK/46e/ezHBT6oDz5f6OjaY4K4wdDegaS6f4IpS9SkvrumkZd7ZZx1I2C7VFNSPCjwrpaYllpwyVYuTiVkGr3fSABhqD6bfRhf0o4DRhHfqIqSeN3gOTuEYarOqvlzyXL9CrHJEmf2y/lMON40kJ09GwvLCnPnO+pq3+7cJ9CFzvxIPbghCezsWb053Bga32Ec7sxtE//P6iEu9vT8uLwPW2p/9bv3fXv748dH9s/Xp6fbN/r9/+NHefvp9kE/fvgX);lineShape=1;strokeColor=default;fontFamily=Architects Daughter;fontSource=https%3A%2F%2Ffonts.googleapis.com%2Fcss%3Ffamily%3DArchitects%2BDaughter;" vertex="1" parent="1">
          <mxGeometry x="2.435968425778128" y="63.18309865239644" width="196.43111649288517" height="59.313693696925384" as="geometry" />
        </mxCell>
        <mxCell id="DCEyCE0tk0ZEMpWGHrVt-25" value="" style="shape=stencil(lVjZctswDPwav2JIggf4nKb/kZk4tadunHGcHn9fsB4pBjRa12+yjBUJLI4lN/zwvnt6225SeD+fjt+3v/bP592Gv2xS2r/utqf9WZ82/Ljhh5fjafvtdPx4fb78fnsaluPpx/Hn+MLvCy5SLwOUwp/Lixqo5X9vvl7sD/vXK3uhYO1LoRjX7WOmwhYQaPxcBXTK2QByIQE7SkwlWECi3ACgU4kGwI0y8IHzFJIZkGCQcqRot5QqjJK6WJIF6AplHaBBdFGKQh1sSWnqlodYKAMeaiQRC1CvGAAaVQvoxGHdviWSZuyFWgf2lapNPaUFOCCa2paESEGAfaNUjX2A/vY4MfRpH4C/XUvHfl8DBhiLYf7eVRY1tEKnaBlgZR2kXW8+T0degdLpxXNWNU9RUCt1m9gaBgYrSJk2MAM6VQRgkm5pDpgIScTsl2DAtATqljkNXAOA1n2xaeC4QgDbcu7aw0BcFeCSVfQTGOCqU6nJKEqBigNopFGUtGHYepB5uKwxx84HDTSiOnsebgGqT6axJcCD9gDX6YfTaBwKVV6EFZSc0hQWxEEeZHLxKjUKBrDrwwWmhjrtk69hDaBdxa0w5+8acdl2gf+oUVnUaEXMRWLbBkajQQCVIW6FCoWJVlB2XvPNGnUrBDhyxwrWh0HNXT5opCueiS5KGugMhu79gEbBAkqemuEawE0IFUMJV1CxBaFqrCOn+2JCdEjc6DOyAOAB0ewKqjUq0j6V2ErQVOAKbdFcVT2gAqrVt28FROB0Xcgl1W9IC5Tm5QkzBUBcUangdHeGNZ3FD2oV6gXr7uyOAgw1lm7AJ59Mc3L17OAUU8Knk0TR1YM2V+B0bFMQryRWAkwPWe4AODXKJGtnHcoUQf1k4uTtUYzYD121F6AD0tSyrr+PjpQkzl7rH7SkuPA3UQD+Bt9fWoBnseAZrtr4ob2rm3FyArUfpt3O9gWKGB0KdpxXZRDux52rNOEExtMNHW0dqIzvvWK4ba8Pn/cZL/vD4XIdcv2/v//QV5e7E378Cw==);lineShape=1;strokeColor=default;fontFamily=Architects Daughter;fontSource=https%3A%2F%2Ffonts.googleapis.com%2Fcss%3Ffamily%3DArchitects%2BDaughter;" vertex="1" parent="1">
          <mxGeometry x="182.1577967094404" y="58.810981108526676" width="23.79733257950238" height="12.235274765925851" as="geometry" />
        </mxCell>
        <mxCell id="DCEyCE0tk0ZEMpWGHrVt-26" value="Index" style="ellipse;whiteSpace=wrap;html=1;fontFamily=Architects Daughter;fontSource=https%3A%2F%2Ffonts.googleapis.com%2Fcss%3Ffamily%3DArchitects%2BDaughter;" vertex="1" parent="1">
          <mxGeometry x="196" y="151" width="97.6" height="61" as="geometry" />
        </mxCell>
        <mxCell id="DCEyCE0tk0ZEMpWGHrVt-27" value="" style="shape=stencil(lVjbUttADP2avGpWq70+U/ofzBBKppQwgd7+vnLDGiQnx8mb4+jY0lnpSPJGbl4f7162mxhe3w7779vfu/u3x4182cS4e37cHnZverWR243cPOwP22+H/c/n++Pvl7vJcrr6sf81PeHPEdc79TyhYvh7vMNU6/8bX4/2T7vnT/YcAoVgAJlCOw+YXsDGvlECL+iJsrXnSAEAWqFuHeJMGXhUGzUXcqNazgNKpxoNIEYS4FIpVKxLSlJKAJCp2KCVJQExKOCdxAEQptjxG4oFJGIUQ/KJIXXQcA6QLUtJXWIAiMRiAeokcilQtzGkTg0FrYBkc1UGDScBWZO1W0CljoJmYnvSeidkGHSyLhWhGgBAfPJpdjHK1jJYH4AasEuaajaGKhQB4ON5MyDD1KhM2QatNYhc+nBgFg2VJVTTkbIDzDV4zqX3582ATgnQOsVgK65rPSBaVTVs0B0rnxZQsjGodjIooKwnnTygAIDWV68egNJbNaLaEv2k/ycRUQus+1c0IH2cfD9RAKSJSvO0dhC0Flz39lGAQ9Tc8+voSKdJ9f2tF2qAIWaf2wqIiNJA0cpez7Bficpe84AMjjlFiksA4Ehl1B8adkllzwNw0JMoLVhCtGp9yqI+0bmpilVHK04MFVavADjztJss6xOltrazvFAAVDzSFsPSWn1WildJANcT9YlEpo1julDFhHLwrCKSeMwIF+rw9fZuslppDGG07ws7z2J+Xmlt+q9r57h3yqirC5vzYs5b6/4UXC/H40UfSnLh/MKBmg14ZULS/YBtBCszGIsX1JUpT98g1qWVOXIC2ENYmVS1KbAbbfEsvKiylWFba8oq/DTNQ/tgI57WBcBp82I67SNATBdrpz4hYkaDLUtdqRiVTRn70AxgqKVaCMnNOg0mqkRq1iVdPBkkqsw5MAN4zFenSzP5ERJLo9q7JQ/v5tPzXfuAy7/mpG83JIDSVD1D80J2umGy9z9QBlWjA3BJzl7QUBH9HhLggekI77QaN9e6WLKxfVPlilf407QqvT2Kty/GNMynjlhuKcLnNXV2yyfOh2s/Nq3b68XHl62H3dPT8cPY5//9lzC9dfyKJrf/AA==);lineShape=1;strokeColor=default;fontFamily=Architects Daughter;fontSource=https%3A%2F%2Ffonts.googleapis.com%2Fcss%3Ffamily%3DArchitects%2BDaughter;" vertex="1" parent="1">
          <mxGeometry x="242.97422774803772" y="98.23214115247129" width="2.800799425266632" height="43.428135181942025" as="geometry" />
        </mxCell>
        <mxCell id="DCEyCE0tk0ZEMpWGHrVt-28" value="" style="shape=stencil(lVjZchpBDPwaXlWa0RyaZ8f5D1cZByoEXJhcfx9tqAUkvO3y2xp3z+psaXYlD2+bp9f1KvPb6Xj4vv69fT5tVvJllfN2v1kftyd7WsnjSh5eDsf1t+Ph5/75/Pfr04Scnn4cfk0n/DnzCtUxkTL/nX8Q/f/D1zN8t93fwJVSd/DEpGUZnxK17Ag5URqAUEjVEUQoCSDcmVTMp7RMmAwQR6hCpQJCoeF9aJkkA4IS+zc0pQIIkmg0TxjEwCSp1NkReiJpgKCUA6ET92VCSdS9ScpUQOJKo+SjpJk68KFm0hQJKNO1U/Vh7YMKyHQTqtUThBQ43ZmqryU7oiCCxloqSg34oJWKJ1juOyCMFt9wqZUlfPNRZRoM8J1yDviM7OmkI+AZna8xpHY+qIoxKGm0HwiM4VvxAkMMasLwIySABAkYX/y7KmQHfWAvUF90bY7wEr74gHZYchbQoBUKm8DwIgEPA9pjQAcOaKOh4fyG8SUFfzuYOIYP8W/4/Dqn5yLvOP53eJmVb9Eeb3+GE3PyNzYwtKdHfxnn1/IVG4zR+VYPNeATrp8RG76h+Ix5+l79bbj+tYV4Io1+tyEFKdCI47viBI9Zwa8FyijBn8SrxrlnwzmBCGmKc682OCinKRcsytSAZrVG4mtomlMgRnVQDyIhcA+0Fav7qpsGA8iarRMcN008aUqOQmeZQcpiYWdf2aYFA4TJti72lTQYapFw3K71g1Wzxo1FcbdZc2nY6wTKdRrz+L3IaYP9n0zffSIs+Q3kIUkcCNVGPuzoeTm+aYiBti7ioBh9fuX7lTEP1EspDbgTcZyw5hJa3/lO8TJcxjmuOHZLStCeMHGsrkHG7vTRdn8QHbMm7isK4cXDK6wGjusivpwlKl5XhBowJsdKkNmZBXj3CpFpoFsWFY6nIwGKtz6Zu38B/qmb94dwe7he8l+2u935G8Ht/+NHAfvp/EFBHv8B);lineShape=1;strokeColor=default;fontFamily=Architects Daughter;fontSource=https%3A%2F%2Ffonts.googleapis.com%2Fcss%3Ffamily%3DArchitects%2BDaughter;" vertex="1" parent="1">
          <mxGeometry x="229.21100963640765" y="134.81315396993114" width="28.418387492499278" height="13.334395307930436" as="geometry" />
        </mxCell>
        <mxCell id="DCEyCE0tk0ZEMpWGHrVt-29" value="" style="shape=image;html=1;verticalAlign=top;verticalLabelPosition=bottom;labelBackgroundColor=#ffffff;imageAspect=0;aspect=fixed;image=https://cdn4.iconfinder.com/data/icons/48-bubbles/48/35.Alarm-Clock-128.png;fontFamily=Architects Daughter;fontSource=https%3A%2F%2Ffonts.googleapis.com%2Fcss%3Ffamily%3DArchitects%2BDaughter;" vertex="1" parent="1">
          <mxGeometry x="140" y="-163" width="56" height="56" as="geometry" />
        </mxCell>
        <mxCell id="DCEyCE0tk0ZEMpWGHrVt-30" value="Schedule: every 1, 8, 15, 22, 29 day of month" style="text;strokeColor=none;fillColor=none;html=1;align=center;verticalAlign=middle;whiteSpace=wrap;rounded=0;fontSize=20;fontFamily=Architects Daughter;fontSource=https%3A%2F%2Ffonts.googleapis.com%2Fcss%3Ffamily%3DArchitects%2BDaughter;" vertex="1" parent="1">
          <mxGeometry x="205.96" y="-152" width="155.04" height="30" as="geometry" />
        </mxCell>
      </root>
    </mxGraphModel>
  </diagram>
</mxfile>
